<svg width="164" height="158" viewBox="0 0 164 158" fill="none" xmlns="http://www.w3.org/2000/svg">
<path d="M162.702 79C162.702 122.08 126.522 157.06 81.8214 157.06C37.1207 157.06 0.940476 122.08 0.940476 79C0.940476 35.9197 37.1207 0.940476 81.8214 0.940476C126.522 0.940476 162.702 35.9197 162.702 79Z" fill="url(#paint0_linear_191_2)" stroke="white" stroke-width="1.88095"/>
<path d="M85.2273 89.0256L85.2796 89.8545L86.1086 89.9051C88.968 90.0796 91.7932 90.4211 94.5509 90.924L95.3162 91.0636L95.5968 90.3379L109.106 55.3973C109.121 55.3675 109.134 55.3364 109.146 55.3038C109.206 55.1447 109.275 54.9939 109.352 54.8559C109.465 54.6528 109.587 54.491 109.702 54.3736L109.03 53.7157L109.702 54.3736C109.77 54.3036 109.829 54.2564 109.876 54.2254C109.888 54.2576 109.9 54.2983 109.912 54.3488C109.943 54.4882 109.958 54.6726 109.944 54.8942C109.942 54.9198 109.94 54.9456 109.938 54.9718L101.378 94.368C101.332 94.5805 101.221 94.7786 101.047 94.9487L100.963 95.0301L100.902 95.1293C100.853 95.2096 100.797 95.2897 100.734 95.3691C99.9864 96.3121 98.4896 96.7529 97.0579 96.3573C93.6286 95.4097 90.0198 94.7841 86.3371 94.4963L85.3233 94.4171V95.4339V120.312H78.4676V95.3969V94.3887L77.4619 94.4587C73.7349 94.718 70.0772 95.3227 66.598 96.2575C65.1616 96.6434 63.6707 96.1886 62.9369 95.2403C62.6643 94.888 62.5251 94.5179 62.4876 94.1647L62.4822 94.1142L62.4714 94.0645L53.9489 54.8368C53.9478 54.8238 53.9469 54.8109 53.946 54.7982L53.9406 54.7985L53.946 54.7981C53.9314 54.5766 53.9468 54.3921 53.9781 54.2528C53.9894 54.2022 54.0019 54.1615 54.0139 54.1293C54.0605 54.1603 54.1197 54.2075 54.1882 54.2775C54.3031 54.3949 54.4246 54.5567 54.5378 54.7598L55.3593 54.302L54.5378 54.7598C54.6142 54.8969 54.6834 55.0467 54.7425 55.2048L54.7425 55.2049C54.7599 55.2514 54.7799 55.2949 54.8022 55.3357L68.294 90.231L68.5721 90.9502L69.3319 90.8185C72.0546 90.3465 74.8399 90.0311 77.6556 89.8777L78.4905 89.8322L78.5431 88.9978L81.622 40.159C81.6327 40.0748 81.6454 39.9925 81.66 39.9127L80.7348 39.7439L81.66 39.9127C81.712 39.6274 81.7848 39.3888 81.8651 39.2064C81.8715 39.192 81.8777 39.1783 81.8839 39.165C81.8901 39.1783 81.8964 39.1921 81.9027 39.2064C81.983 39.3888 82.0558 39.6274 82.1079 39.9127C82.1231 39.9964 82.1364 40.0829 82.1474 40.1714L85.2273 89.0256Z" fill="white" stroke="white" stroke-width="1.88095"/>
<defs>
<linearGradient id="paint0_linear_191_2" x1="81.8214" y1="0" x2="81.8214" y2="186.534" gradientUnits="userSpaceOnUse">
<stop stop-color="#8C0909"/>
<stop offset="0.435" stop-color="#DC2F02"/>
<stop offset="0.605" stop-color="#E85D04"/>
<stop offset="0.815" stop-color="#F48C06"/>
<stop offset="1" stop-color="#FFBA08"/>
</linearGradient>
</defs>
</svg>
