<?xml version="1.0" encoding="UTF-8"?>
<svg id="Layer_24" data-name="Layer 24" xmlns="http://www.w3.org/2000/svg" viewBox="0 0 798.41 566.36">
  <defs>
    <style>
      .cls-1 {
        fill: #fff;
      }
    </style>
  </defs>
  <g>
    <path class="cls-1" d="M21.21,269.3h34.95l-.75,17.1c7.79-13.32,18.1-19.36,31.18-19.36,14.33,0,24.39,6.03,30.92,18.86,9.05-11.31,21.12-18.86,37.46-18.86,27.66,0,43.75,18.35,43.75,48.52v63.61h-34.44v-60.84c0-12.82-4.02-19.86-17.35-19.86s-19.36,6.79-19.36,21.62v58.83h-34.7v-60.59c0-12.82-3.77-19.86-17.1-19.86s-19.61,6.79-19.61,21.62v58.83H21.21v-109.62Z"/>
    <path class="cls-1" d="M272.12,352.52c12.57,0,22.12-4.78,27.66-8.8l19.86,21.37c-10.56,9.3-24.14,16.34-47.01,16.34-39.22,0-64.61-23.63-64.61-57.57s26.65-56.82,60.84-56.82c39.47,0,61.09,29.42,58.33,67.88h-83.47c3.27,11.06,12.57,17.6,28.41,17.6ZM291.98,314.55c-1.51-12.07-9.3-19.36-23.13-19.36s-23.13,6.29-25.9,19.36h49.03Z"/>
    <path class="cls-1" d="M337.99,192.87h34.7v186.05h-34.7v-186.05Z"/>
    <path class="cls-1" d="M393.05,269.3h34.95v109.87h-34.95v-109.87Z"/>
    <path class="cls-1" d="M439.56,360.31l20.36-18.1c7.54,7.29,17.1,11.57,27.4,11.57,11.31,0,15.08-2.01,15.08-6.79,0-6.03-7.04-6.03-24.89-10.56-15.08-3.77-31.68-12.07-31.68-34.95,0-24.64,19.11-34.7,42.74-34.7,18.1,0,30.92,6.03,39.97,15.08l-18.6,19.86c-5.28-4.27-12.82-8.3-21.12-8.3s-11.82,2.01-11.82,6.54c0,6.29,7.04,7.04,21.87,10.31,16.09,3.52,36.2,11.06,36.2,34.19,0,20.11-10.56,36.71-45.25,36.71-25.9,0-40.73-9.3-50.28-20.87Z"/>
    <path class="cls-1" d="M539.12,360.31l20.36-18.1c7.54,7.29,17.1,11.57,27.4,11.57,11.31,0,15.08-2.01,15.08-6.79,0-6.03-7.04-6.03-24.89-10.56-15.08-3.77-31.93-12.07-31.93-34.95,0-24.64,19.11-34.7,42.74-34.7,18.1,0,30.92,6.03,39.97,15.08l-18.6,19.86c-5.28-4.27-12.82-8.3-21.12-8.3s-11.82,2.01-11.82,6.54c0,6.29,7.04,7.04,21.87,10.31,16.09,3.52,36.2,11.06,36.2,34.19,0,20.11-10.56,36.71-45.25,36.71-25.39,0-40.48-9.3-50.03-20.87Z"/>
    <path class="cls-1" d="M638.68,323.86c0-33.19,21.37-56.82,49.03-56.82,16.59,0,27.4,7.04,33.69,18.86l-.5-16.59h34.7v109.87h-34.7l.5-16.84c-5.78,11.06-17.35,19.11-34.19,19.11-26.15-.25-48.52-23.88-48.52-57.57ZM721.4,323.86c0-16.34-8.55-26.4-23.63-26.4s-23.13,10.06-23.13,26.4,8.3,27.15,23.13,27.15,23.63-10.31,23.63-27.15Z"/>
    <rect class="cls-1" x="392.29" y="217.26" width="34.95" height="34.7"/>
  </g>
  <path class="cls-1" d="M775.95,269.55c1.76,0,3.77.5,5.53,1.51,1.76,1.01,3.27,2.26,4.02,4.02,1.01,1.76,1.51,3.52,1.51,5.53s-.5,3.77-1.51,5.53c-1.01,1.76-2.26,3.02-4.02,4.02-1.76,1.01-3.52,1.51-5.53,1.51s-3.77-.5-5.53-1.51c-1.76-1.01-3.02-2.26-4.02-4.02-1.01-1.76-1.51-3.52-1.51-5.53s.5-3.77,1.51-5.53c1.01-1.76,2.26-3.02,4.27-4.02,1.51-1.26,3.52-1.51,5.28-1.51M775.95,271.31c-1.51,0-3.02.5-4.53,1.26-1.51.75-2.51,2.01-3.52,3.52-.75,1.51-1.26,3.02-1.26,4.53s.5,3.02,1.26,4.53c.75,1.51,2.01,2.51,3.52,3.52,1.51.75,3.02,1.26,4.53,1.26s3.02-.5,4.53-1.26c1.51-.75,2.51-2.01,3.52-3.52.75-1.51,1.26-3.02,1.26-4.53s-.5-3.27-1.26-4.53c-.75-1.51-2.01-2.51-3.52-3.52-1.51-1.01-3.02-1.26-4.53-1.26M771.18,286.65v-12.07h4.02c1.51,0,2.51,0,3.02.25s1.01.5,1.51,1.26c.25.5.5,1.01.5,1.76s-.25,1.51-1.01,2.26c-.5.75-1.51,1.01-2.51,1.01.5.25.75.5,1.01.75.5.5,1.01,1.26,1.76,2.26l1.51,2.26h-2.26l-1.01-1.76c-.75-1.51-1.51-2.51-2.01-2.77-.25-.25-1.01-.5-1.51-.5h-1.26v5.03h-1.76v.25ZM772.94,279.86h2.26c1.01,0,1.76-.25,2.26-.5.5-.25.5-.75.5-1.26,0-.25,0-.75-.25-1.01-.25-.25-.5-.5-.75-.5-.25-.25-1.01-.25-2.01-.25h-2.26v3.52h.25Z"/>
</svg>