<?xml version="1.0" encoding="UTF-8"?>
<svg id="Layer_24" data-name="Layer 24" xmlns="http://www.w3.org/2000/svg" viewBox="0 0 798.41 566.36">
  <defs>
    <style>
      .cls-1 {
        fill: #fff;
      }
    </style>
  </defs>
  <g id="layer1">
    <g id="g48604">
      <path id="path46407" class="cls-1" d="M33.26,242.71h26.14v24.14h29.16v23.13h-29.16v40.43c0,10.46,5.42,13.88,13.07,13.88h16.09v23.13h-16.09c-26.75,0-39.22-11.66-39.22-37.01v-87.7Z"/>
      <path id="path46409" class="cls-1" d="M151.11,369.81c-32.18,0-53.71-21.13-53.71-52.49s21.13-52.9,52.29-52.9,51.48,20.52,51.48,51.89c0,3.02-.2,6.23-.81,10.06h-75.6c2.41,14.08,11.07,20.72,26.75,20.72,9.86,0,17.1-4.23,19.91-9.85h26.95c-6.03,19.51-22.93,32.58-47.27,32.58h0ZM125.17,305.06h48.67c-2.61-12.67-10.26-18.7-24.14-18.7-13.07,0-21.51,6.44-24.53,18.7Z"/>
      <path id="path46411" class="cls-1" d="M215.66,266.83h25.13v12.06c9.25-9.25,20.32-13.88,30.78-12.06v24.14c-13.07-1.6-21.51,4.43-29.77,15.08v61.34h-26.14v-100.55Z"/>
      <path id="path46413" class="cls-1" d="M304.14,368.6c-18.5,0-33.19-10.87-33.19-33.39,0-18.5,11.66-31.16,37.8-31.16h22.73v-3.02c0-9.25-5.83-13.07-20.32-13.07-9.65,0-17.3,1.01-27.76,4.03v-23.53c8.05-2.21,18.11-3.62,29.97-3.62,30.17,0,44.24,11.45,44.24,36.2v66.37h-25.54v-5.83l-5.83,2.41c-7.45,3.02-15.08,4.63-22.12,4.63l.02-.02h0ZM318.42,345.07l13.07-5.63v-14.87h-19.91c-9.05,0-14.49,4.23-14.49,10.87,0,7.85,5.42,11.66,12.26,11.66,2.81,0,6.03-.81,9.05-2l.02-.02h0Z"/>
      <path id="path46415" class="cls-1" d="M450.14,367.41v-6.64l-1.4.61c-9.25,4.43-19.1,6.64-28.55,6.64-25.13,0-47.27-16.29-47.27-50.87s22.12-51.08,47.47-51.08c9.25,0,19.1,2.21,28.35,6.64l.81.41v-44.48h26.14v138.78h-25.55ZM425.01,343.87c5.63,0,11.86-1.42,18.29-4.43l6.23-3.02v-38.61l-6.23-3.02c-6.44-3.02-12.67-4.43-18.29-4.43-14.49,0-25.34,9.05-25.34,26.75s10.87,26.75,25.34,26.75h0Z"/>
      <path id="path46417" class="cls-1" d="M522.95,368.6c-18.5,0-33.19-10.87-33.19-33.39,0-18.5,11.66-31.16,37.8-31.16h22.72v-3.02c0-9.25-5.83-13.07-20.31-13.07-9.65,0-17.3,1.01-27.76,4.03v-23.53c8.05-2.21,18.11-3.62,29.97-3.62,30.17,0,44.24,11.45,44.24,36.2v66.37h-25.54v-5.83l-5.83,2.41c-7.45,3.02-15.08,4.63-22.12,4.63l.02-.02h0ZM537.24,345.07l13.07-5.63v-14.87h-19.91c-9.05,0-14.49,4.23-14.49,10.87,0,7.85,5.42,11.66,12.26,11.66,2.81,0,6.03-.81,9.05-2l.02-.02h0Z"/>
      <path id="path46419" class="cls-1" d="M595.74,242.71h26.15v24.14h29.16v23.13h-29.16v40.43c0,10.46,5.42,13.88,13.07,13.88h16.09v23.13h-16.09c-26.75,0-39.22-11.66-39.22-37.01v-87.7Z"/>
      <path id="path46421" class="cls-1" d="M693.28,368.6c-18.49,0-33.18-10.87-33.18-33.39,0-18.5,11.65-31.16,37.8-31.16h22.73v-3.02c0-9.25-5.83-13.07-20.31-13.07-9.65,0-17.3,1.01-27.77,4.03v-23.53c8.05-2.21,18.11-3.62,29.97-3.62,30.17,0,44.24,11.45,44.24,36.2v66.37h-25.54v-5.83l-5.83,2.41c-7.45,3.02-15.08,4.63-22.12,4.63l.02-.02h0ZM707.57,345.07l13.07-5.63v-14.87h-19.92c-9.05,0-14.49,4.23-14.49,10.87,0,7.85,5.43,11.66,12.27,11.66,2.81,0,6.03-.81,9.05-2l.02-.02h0Z"/>
      <path id="path46423" class="cls-1" d="M761.86,355.93c0-7.65,6.03-13.68,13.88-13.68s13.88,6.03,13.88,13.68-6.23,13.88-13.88,13.88-13.88-6.23-13.88-13.88Z"/>
    </g>
  </g>
</svg>