<svg width="1200" height="2708" viewBox="0 0 1200 2708" fill="none" xmlns="http://www.w3.org/2000/svg">
<path d="M1202.68 1391.06L-9.28999 1690.75V2707.1H1202.68V1391.06Z" fill="url(#paint0_linear_191_3)" stroke="#0E111F" stroke-miterlimit="1"/>
<path d="M1452.79 451.65L1168.49 387.41L884.19 451.65L1168.49 515.89L1452.79 451.65Z" fill="#0E111F" stroke="#0E111F" stroke-miterlimit="1"/>
<path d="M1452.79 451.65L1168.49 387.41V258.93L1452.79 323.17V451.65Z" fill="#33121B" stroke="#0E111F" stroke-miterlimit="1"/>
<path d="M1168.49 387.41L884.19 451.65V323.17L1168.49 258.93V387.41Z" fill="#33121B" stroke="#0E111F" stroke-miterlimit="1"/>
<path d="M1168.49 1533.61L884.19 1469.37V323.17L1168.49 387.41V1533.61Z" fill="#0E111F" stroke="#0E111F" stroke-miterlimit="1"/>
<path d="M1168.49 1533.61L1452.79 1469.37V323.17L1168.49 387.41V1533.61Z" fill="#0E111F" stroke="#0E111F" stroke-miterlimit="1"/>
<path d="M1452.79 323.17L1168.49 258.93L884.19 323.17L1168.49 387.41L1452.79 323.17Z" fill="#33121B" stroke="#0E111F" stroke-miterlimit="1"/>
<path d="M783.29 704.67L304.48 596.48L-174.34 704.67L304.48 812.86L783.29 704.67Z" fill="#0E111F" stroke="#0E111F" stroke-miterlimit="1"/>
<path d="M783.29 704.67L304.48 596.48V380.1L783.29 488.29V704.67Z" fill="#33121B" stroke="#0E111F" stroke-miterlimit="1"/>
<path d="M304.48 596.48L-174.34 704.67V488.29L304.48 380.1V596.48Z" fill="#33121B" stroke="#0E111F" stroke-miterlimit="1"/>
<path d="M304.48 2092.73L-174.34 1984.54V488.29L304.48 596.48V2092.73Z" fill="#0E111F" stroke="#0E111F" stroke-miterlimit="1"/>
<path d="M304.48 2092.73L783.29 1984.54V488.29L304.48 596.48V2092.73Z" fill="#0E111F" stroke="#0E111F" stroke-miterlimit="1"/>
<path d="M783.29 488.29L304.48 380.1L-174.34 488.29L304.48 596.48L783.29 488.29Z" fill="#33121B" stroke="#0E111F" stroke-miterlimit="1"/>
<path fill-rule="evenodd" clip-rule="evenodd" d="M477.24 530.21C463.82 528.86 460.76 528.02 459.72 523.31L467.62 524.18L473.64 413.35C474.24 382.03 441.47 341.5 441.47 341.5C414.11 316.63 410.57 213.8 410.57 213.8L447.59 167.4L418.78 141.52L400.18 135.1C400.85 135.31 416.96 140.4 414.37 135.09C411.71 129.67 401.22 125 401.22 125C382.4 123.35 389.09 113.72 389.09 113.72C433.05 109.62 420.41 53.6102 420.41 53.6102C479.72 30.3102 420.65 40.5103 420.65 40.5103L420.18 21.3702C420.14 15.0802 407.88 8.59023 401.85 6.80023C297.55 -24.0298 323.22 76.6302 323.22 76.6302C271.59 124.79 354.98 104.36 354.98 104.36C359.2 116.4 347.15 111.59 347.15 111.59L316.68 115.45C311.26 107.56 302.56 102.01 292.3 100.93L288.39 100.52C269.79 98.5703 253.12 112.07 251.16 130.67L235.9 275.94C233.94 294.55 247.44 311.22 266.05 313.17L266.83 313.25V316.95C254.77 315.91 254.77 333.2 254.77 333.2H279.4C284.65 319.74 274.69 316.69 274.69 316.69L275.06 313.73C277.22 313.63 279.34 313.33 281.39 312.84C282.92 330.55 289.39 350.31 311.01 348.38H311.02C312.2 350.7 313.51 353.11 314.96 355.58C333.37 386.95 280.6 530.04 280.6 530.04L289.12 532.33L270.68 571.26C270.68 571.26 275.51 591.89 304.48 594.16L354.64 602.97C354.64 602.97 379.07 577.78 361.51 565.36C361.51 565.36 343.72 555.17 339.32 545.79L350.83 548.88L384.5 386.59L395.41 387.74C405.96 387.66 414.01 424.79 414.01 424.79C417.62 463.94 401.96 516.94 401.96 516.94L410.63 517.89L398.52 564.47C398.52 564.47 406.16 579.57 442.92 575.75C479.67 571.93 492.9 565 492.9 565C492.9 565 495.49 532.02 477.24 530.2V530.21ZM288.47 310.29C292.82 308.14 296.67 305.07 299.74 301.31C300.01 303.28 300.17 304.34 300.17 304.34C300.17 304.34 297.64 318.24 307.59 341.15C298.46 338.87 288.9 331.4 288.47 310.29Z" fill="#0E111F"/>
<path fill-rule="evenodd" clip-rule="evenodd" d="M449.31 162L481.45 261.16L519.98 321.23L463 346.43L429.79 293.37L410.57 216.26L422.57 144.92L449.31 162Z" fill="#0E111F"/>
<path fill-rule="evenodd" clip-rule="evenodd" d="M298.03 284.96L301.26 353.74L307.59 359.13L451.8 348.84L440.79 321.23L430.78 280.25L410.57 192.53L298.03 284.96Z" fill="#0E111F"/>
<path fill-rule="evenodd" clip-rule="evenodd" d="M553.76 322.81L549.45 355.89C549.08 358.74 546.42 360.68 543.59 360.22C536.3 359.03 513.04 353.33 515.61 335.84C518.14 318.62 535.58 317.67 548.55 317.11C551.68 316.98 554.17 319.71 553.76 322.81Z" fill="#0E111F"/>
<path fill-rule="evenodd" clip-rule="evenodd" d="M473.01 327.03L490.58 352.8L481.8 347.17L473.02 351.19L490.59 363.72C490.59 363.72 524.65 373.32 531.46 352.8C538.27 332.28 505.76 311.43 505.76 311.43L473.02 324.34" fill="#0E111F"/>
<path fill-rule="evenodd" clip-rule="evenodd" d="M493.03 339.39C493.03 339.39 388.47 358.06 379.29 447.92C370.11 537.78 128.74 519.41 128.74 519.41C128.74 519.41 -36.55 510.23 -39.17 554.83C-41.79 599.43 -18.84 602.05 -18.84 602.05C-18.84 602.05 -18.84 518.1 129.39 539.08C277.62 560.06 396.25 505.45 395.03 454.47C393.81 403.49 462.41 359.25 502.69 355.43C543.59 351.55 493.02 339.38 493.02 339.38L493.03 339.39Z" fill="#0E111F"/>
<defs>
<linearGradient id="paint0_linear_191_3" x1="597.75" y1="2576.1" x2="595.76" y2="1580.6" gradientUnits="userSpaceOnUse">
<stop offset="0.71" stop-color="#0E111F"/>
<stop offset="0.91" stop-color="#25111D"/>
<stop offset="1" stop-color="#32111A"/>
</linearGradient>
</defs>
</svg>
