<svg width="1200" height="887" viewBox="0 0 1200 887" fill="none" xmlns="http://www.w3.org/2000/svg">
<path d="M1273.13 659L512 695.435L525.099 753.584L1304 866L1273.13 659Z" fill="#FAA31A"/>
<path d="M1068.27 696.9L588.27 720.49L-44.07 529.99H1068.27V696.9Z" fill="#E65F25"/>
<path d="M968.18 399.56H485.81V529.99H968.18V399.56Z" fill="#CF2026"/>
<path d="M-67.86 751.33L270.64 789.62L-73.63 886.45L-67.86 751.33Z" fill="#FDB913"/>
<path d="M1135.34 281.97H856.63V419.46H1135.34V281.97Z" fill="#690B14"/>
<path d="M1509.57 316.54H669.33L742.66 274.96C760.27 251.51 784.66 233.44 812.91 223.65C819.57 173.17 862.77 134.22 915.06 134.22C933.85 134.22 951.48 139.26 966.65 148.05C995.84 110.68 1041.33 86.6599 1092.42 86.6599C1154.49 86.6599 1208.28 122.11 1234.65 173.87C1274.79 174.18 1310.01 195.14 1330.22 226.66C1338.88 219.66 1349.91 215.47 1361.93 215.47C1389.84 215.47 1412.47 238.1 1412.47 266.01L1509.57 316.54Z" fill="#9D1C20"/>
<path d="M1592.24 431.88H752L825.33 390.3C842.94 366.85 867.33 348.78 895.58 338.99C902.24 288.51 945.44 249.56 997.73 249.56C1016.52 249.56 1034.15 254.6 1049.32 263.39C1078.51 226.02 1124 202 1175.09 202C1237.16 202 1290.95 237.45 1317.32 289.21C1357.46 289.52 1392.68 310.48 1412.89 342C1421.55 335 1432.58 330.81 1444.6 330.81C1472.51 330.81 1495.14 353.44 1495.14 381.35L1592.24 431.88Z" fill="#9D1C20"/>
<path d="M1064.32 432.92H-6.31001V101.14C-8.25001 94.7799 -9.29001 88.03 -9.29001 81.04C-9.29001 42.96 21.58 12.0901 59.66 12.0901C81.06 12.0901 100.18 21.8399 112.82 37.1299C148.3 14.1499 190.6 0.800049 236.02 0.800049C337.48 0.800049 423.39 67.39 452.42 159.25C460.92 157.51 469.72 156.6 478.74 156.6C544.66 156.6 599.2 205.3 608.35 268.68C619.52 263.41 632.01 260.46 645.18 260.46C675.64 260.46 702.42 276.21 717.82 300.02C741.79 275.6 775.16 260.46 812.07 260.46C879.22 260.46 934.66 310.56 943.06 375.42L1064.32 432.92Z" fill="#DA3526"/>
<path d="M774 543.95H-9.29001V294.59C-9.29001 243.23 51.87 201.59 127.32 201.59C188.56 201.59 240.39 229.03 257.74 266.82C280.86 244.75 312.16 231.21 346.64 231.21C417.77 231.21 475.44 288.88 475.44 360.01C475.44 364.95 475.16 369.83 474.62 374.62C474.89 374.62 475.17 374.62 475.44 374.62C525.32 374.62 565.76 415.06 565.76 464.94V465.03C625.27 466.57 672.49 488.94 672.49 516.32C672.49 516.55 672.49 516.77 672.49 517L774.01 543.95H774Z" fill="#F38C20"/>
<path d="M547.02 611.48H1431.81V337.29C1433.41 332.03 1434.27 326.46 1434.27 320.68C1434.27 289.21 1408.76 263.7 1377.29 263.7C1359.6 263.7 1343.8 271.76 1333.36 284.39C1304.04 265.4 1269.08 254.37 1231.54 254.37C1147.69 254.37 1076.69 309.4 1052.7 385.32C1045.68 383.88 1038.4 383.13 1030.95 383.13C976.47 383.13 931.4 423.38 923.84 475.76C914.61 471.4 904.29 468.97 893.4 468.97C868.23 468.97 846.1 481.99 833.37 501.66C813.56 481.48 785.98 468.97 755.48 468.97C699.99 468.97 654.17 510.37 647.23 563.98L547.02 611.5V611.48Z" fill="#FAA31A"/>
<path d="M1405.63 495.66V715.91H723.01L853.3 655.86C852.62 652.24 852.26 648.51 852.26 644.69C852.26 611.6 879.08 584.79 912.17 584.79C932.26 584.79 950.03 594.67 960.9 609.84C978.34 576.37 1013.36 553.51 1053.71 553.51C1074.33 553.51 1093.55 559.48 1109.75 569.78C1119.33 548.64 1139.29 533.21 1163.12 529.99C1159.98 519.09 1158.3 507.57 1158.3 495.66C1158.3 427.36 1213.66 372 1281.96 372C1350.26 372 1405.62 427.36 1405.62 495.66H1405.63Z" fill="#FDB913"/>
<path d="M-182.76 351.27V571.52H499.86L369.57 511.47C370.25 507.85 370.61 504.12 370.61 500.3C370.61 467.21 343.79 440.4 310.7 440.4C290.61 440.4 272.84 450.28 261.97 465.45C244.53 431.98 209.51 409.12 169.16 409.12C148.54 409.12 129.32 415.09 113.12 425.39C103.54 404.25 83.58 388.82 59.75 385.6C62.89 374.7 64.57 363.18 64.57 351.27C64.57 282.97 9.20999 227.61 -59.09 227.61C-127.39 227.61 -182.75 282.97 -182.75 351.27H-182.76Z" fill="#FDB913"/>
<path d="M774 789.62H-309.57L-215 736C-192.29 705.76 -160.84 682.46 -124.41 669.83C-115.82 604.73 -60.11 554.5 7.32001 554.5C31.55 554.5 54.29 561 73.85 572.34C111.49 524.15 170.16 493.17 236.04 493.17C316.09 493.17 385.45 538.89 419.46 605.64C471.22 606.04 516.64 633.07 542.71 673.72C553.88 664.69 568.1 659.29 583.6 659.29C619.59 659.29 648.78 688.47 648.78 724.47L774 789.63V789.62Z" fill="#F1F2F2"/>
</svg>
