<svg width="607" height="2047" viewBox="0 0 607 2047" fill="none" xmlns="http://www.w3.org/2000/svg">
<path d="M113.442 1160.76L577.412 2046.29V1194.67L444.522 1135.7" fill="#690B14"/>
<path d="M445.682 409.41V1119.54C445.682 1189.39 389.062 1194.66 319.212 1194.66H232.712C162.862 1194.66 106.242 1189.39 106.242 1119.54V409.41C106.242 341.88 159.182 286.69 225.842 283.13V206.07H326.082V283.13C392.742 286.69 445.682 341.88 445.682 409.41Z" fill="url(#paint0_linear_240_7)"/>
<path d="M445.682 409.42V1119.55C445.682 1189.4 389.062 1194.67 319.212 1194.67H232.722C168.912 1194.67 116.142 1190.27 107.492 1136.27C416.042 1263.5 445.682 409.42 445.682 409.42Z" fill="#9D1C20"/>
<path d="M250.012 177.12L234.042 147.17L300.112 97.25L309.912 73.29L464.602 3.13986C475.252 -1.69014 487.592 -0.910058 497.552 5.21994L507.582 11.3999L349.842 86.28L323.882 130L337.862 151.17C337.862 151.17 627.382 211.22 605.412 260.06L329.872 191.1L309.902 247.01L250.002 177.13L250.012 177.12Z" fill="#0E111F"/>
<path d="M263.272 178.79H149.402V233.35H263.272V178.79Z" fill="#690B14"/>
<path d="M275.962 269.25C314.417 269.25 345.592 238.075 345.592 199.62C345.592 161.164 314.417 129.99 275.962 129.99C237.506 129.99 206.332 161.164 206.332 199.62C206.332 238.075 237.506 269.25 275.962 269.25Z" fill="#0E111F"/>
<path d="M276.062 254.07C306.134 254.07 330.512 229.692 330.512 199.62C330.512 169.548 306.134 145.17 276.062 145.17C245.99 145.17 221.612 169.548 221.612 199.62C221.612 229.692 245.99 254.07 276.062 254.07Z" fill="#F38C20"/>
<path d="M149.402 178.79C149.402 178.79 8.06172 192.15 0.941721 317.88C-6.17828 443.61 29.4117 581.8 29.4117 581.8C29.4117 581.8 66.8217 780.56 70.2217 808.95C74.7017 846.31 65.0217 1129.06 65.0217 1129.06L106.112 1135.71L106.672 727.67C106.672 727.67 55.5017 503.52 49.5717 419.31C43.6417 335.1 46.4017 262.11 149.402 233.37V178.81V178.79Z" fill="#0E111F"/>
<path d="M106.242 960.96H63.8517V1036.1H106.242V960.96Z" fill="#690B14"/>
<path d="M443.022 747.74C443.022 760.72 368.312 771.23 276.172 771.23C184.032 771.23 109.322 760.72 109.322 747.74L109.102 479.89C109.102 492.85 183.812 503.36 275.952 503.36C368.092 503.36 442.802 492.85 442.802 479.89L443.022 747.74Z" fill="#F1F2F2"/>
<path d="M445.572 863.2V905.94C445.572 919.12 369.672 929.8 276.062 929.8C182.452 929.8 106.552 919.12 106.552 905.94V863.2C106.552 872.56 144.912 880.67 200.742 884.57C223.422 886.16 249.012 887.05 276.062 887.05C303.112 887.05 328.712 886.16 351.402 884.57C407.222 880.67 445.582 872.56 445.582 863.2H445.572Z" fill="#0E111F"/>
<defs>
<linearGradient id="paint0_linear_240_7" x1="59.7117" y1="295.07" x2="460.332" y2="1157.95" gradientUnits="userSpaceOnUse">
<stop stop-color="#E65F25"/>
<stop offset="1" stop-color="#CF2026"/>
</linearGradient>
</defs>
</svg>
