<svg width="5010" height="3615" viewBox="0 0 5010 3615" fill="none" xmlns="http://www.w3.org/2000/svg">
<path d="M292.95 350.682V389.504V3614.02H1482.45H5009.95L1492.95 522L1136.34 229.016L292.95 350.682Z" fill="url(#paint0_linear_158_97)"/>
<path d="M597.4 3.4158L1084.31 148.056C1119.27 158.446 1143.25 190.576 1143.25 227.046V243.026C1143.25 274.336 1125.5 302.946 1097.44 316.856L615.14 555.896C593.2 566.766 567.56 567.326 545.17 557.406L49.02 337.586C19.22 324.386 0 294.846 0 262.246V257.486C0 222.636 21.92 191.556 54.75 179.866L546.29 4.77566C562.75 -1.08434 580.65 -1.56397 597.4 3.40603V3.4158Z" fill="#9D1C20"/>
<path d="M1074.89 159.496C911.25 276.236 709.46 363.706 512.06 346.436C458.12 341.716 308.61 328.306 189.26 270.816C126.33 240.506 49.6001 207.186 54.5301 193.346L564.3 11.116C572.07 8.336 580.53 8.21614 588.38 10.7561L1074.9 159.496H1074.89Z" fill="url(#paint1_linear_158_97)"/>
<path d="M1030 294.026L1053.06 340.396C1058.92 352.176 1051.59 367.736 1036.7 375.146L818.98 483.396C804.08 490.806 787.26 487.256 781.4 475.466L758.34 429.096C752.48 417.316 759.81 401.756 774.7 394.346L777.04 393.186C791.94 385.776 808.76 389.326 814.62 401.116C820.48 412.896 843.05 428.016 857.95 420.606L963.11 368.316C978.01 360.906 979.58 333.787 973.72 322.007C967.86 310.227 975.19 294.667 990.08 287.257L992.42 286.096C1007.32 278.686 1024.14 282.236 1030 294.026Z" fill="url(#paint2_linear_158_97)"/>
<path d="M687.32 198.026L763.57 226.396C775.1 230.686 775.55 238.666 764.56 244.216L711.84 270.846C700.85 276.396 682.6 277.416 671.06 273.116L594.81 244.746C583.28 240.456 565.02 241.476 554.03 247.016L481.41 283.696C470.42 289.246 452.17 290.266 440.63 285.966L385.28 265.366C373.75 261.076 373.3 253.096 384.29 247.546L456.91 210.866C467.9 205.316 467.45 197.336 455.92 193.046L379.67 164.666C368.14 160.376 367.69 152.396 378.68 146.846L431.4 120.216C442.39 114.666 460.64 113.646 472.18 117.946L548.43 146.326C559.96 150.616 578.22 149.596 589.21 144.056L661.83 107.376C672.82 101.826 691.07 100.806 702.61 105.106L757.96 125.706C769.49 129.996 769.94 137.976 758.95 143.526L686.33 180.206C675.34 185.756 675.79 193.736 687.32 198.026Z" fill="#F1F2F2"/>
<defs>
<linearGradient id="paint0_linear_158_97" x1="3956.84" y1="518.812" x2="3956.84" y2="1260.79" gradientUnits="userSpaceOnUse">
<stop stop-color="#690B14"/>
<stop offset="1" stop-color="#32111A"/>
</linearGradient>
<linearGradient id="paint1_linear_158_97" x1="464.89" y1="-79.3339" x2="666.38" y2="439.806" gradientUnits="userSpaceOnUse">
<stop stop-color="#E65F25"/>
<stop offset="1" stop-color="#CF2026"/>
</linearGradient>
<linearGradient id="paint2_linear_158_97" x1="836.19" y1="207.996" x2="919.16" y2="418.976" gradientUnits="userSpaceOnUse">
<stop stop-color="#E65F25"/>
<stop offset="1" stop-color="#CF2026"/>
</linearGradient>
</defs>
</svg>
