<svg width="1200" height="1367" viewBox="0 0 1200 1367" fill="none" xmlns="http://www.w3.org/2000/svg">
<path d="M1200 1366.35H2.74181e-06L-0.129997 271.46V220.26H26.93V154.4H47.03V183.21H65.59V139.99L83.37 116.32L97.29 134.85V193.51H110.43V37.0901H124.35V0.0400391H167.65V37.0901H183.11V172.93H195.48V140L221.77 105.01L248.83 141.03V172.93H263.52V257.32H282.08V172.93L296.77 153.38L310.69 171.9H321.77V141.37H332.08V118.73H347.55L356.83 106.38H396.52L406.57 93.0001H427.96L438.91 107.58H451.8V181.67L463.97 165.46V77.22H476.92V164.69L487.55 178.84H500.5V153.37H519.83V172.92H529.11V182.7H537.61L563.9 97.8H579.37V70.0201H628.46V60.7601H646.63L656.68 74.1401V183.22H663.64V163.67H686.45L713.32 199.43V217.7H734.77V155.78H748.04V83.7401L757.58 71.05H786.19L794.31 81.86V143.43H811.45V119.42H832.07V137.26L858.62 101.93H887.75V126.29H903.21V146.87H930.53L943.67 129.38H995.99V74.1501H1005.27V43.9601H1059.91V67.29L1072.02 83.41V192.84H1084.13V109.83L1108.1 77.9301V51.73H1133.61V142.08H1161.45V118.07H1199.85V271.5L1199.98 1366.39L1200 1366.35Z" fill="url(#paint0_linear_158_11)"/>
<defs>
<linearGradient id="paint0_linear_158_11" x1="599.93" y1="1306.68" x2="599.93" y2="158.47" gradientUnits="userSpaceOnUse">
<stop stop-color="#CF2026"/>
<stop offset="0.16" stop-color="#DA3526"/>
<stop offset="0.61" stop-color="#E65F25"/>
<stop offset="0.91" stop-color="#F38C20"/>
<stop offset="1" stop-color="#FAA31A"/>
</linearGradient>
</defs>
</svg>
