<svg width="1200" height="3344" viewBox="0 0 1200 3344" fill="none" xmlns="http://www.w3.org/2000/svg">
<path d="M1199.73 325.42V80.68H1169.58V115.26H1078.37V29.64L970.15 0H923.77V130.07H852.65V72.44H783.08V158.06H719.69V111.96H639.3V0H606.83V29.64H586.73V0H549.63V133.36H492.43V29.63H452.23V93.84H429.04V44.45H374.93V113.6H303.81V51.86H275.98V107.02H221.87V51.86H139.93V77.38L95.87 30.46H38.92V96.04H31.19V65.85H0V325.41H1199.73V325.42Z" fill="#C75327"/>
<rect x="0" y="338.77" width="1200" height="2000" fill="#E65F25"/>
<path d="M1200 357.23V136.08H1179.12V172.74H1150.51L1138.53 186.6V97.6201H1106.44L1089.04 77.5001H982.73V158.43H950.25V128.92H932.47V181.68H915.46L884.91 146.36H841.22L827.88 161.79H811.84V255.02H746.12L692.77 193.32V86.0101L674.99 65.4401H589.16L572.92 84.2201V202.26H505.65V96.7301L492.89 81.9701V60.0601H480.91V210.3H418.28V120.16L390.37 87.8701H322.41V249.64H282.2V154.85H221.89V107.45L210.68 94.4801V155.74H198.7V91.3501H98.96V162H72.67V120.15H59.53V162H30.15V190.62H17.01V133.39H0V357.23H1200Z" fill="#E65F25"/>
</svg>
