<svg width="1200" height="1453" viewBox="0 0 1200 1453" fill="none" xmlns="http://www.w3.org/2000/svg">
<path d="M1199.6 325.65V80.91H1169.45V115.49H1078.24V29.87L970.02 0.22998H923.64V130.3H852.52V72.67H782.95V158.29H719.56V112.19H639.17V0.22998H606.7V29.87H586.6V0.22998H549.5V133.59H492.3V29.86H452.1V94.07H428.91V44.68H374.8V113.83H303.68V52.09H275.85V107.25H221.74V52.09H139.8V77.61L95.74 30.69H38.79V96.27H31.06V66.08H-0.129997V325.64H1199.6V325.65Z" fill="#C75327"/>
<path d="M1199.87 357.46V136.31H1178.99V172.97H1150.38L1138.4 186.83V97.85H1106.31L1088.91 77.73H982.6V158.66H950.12V129.15H932.34V181.91H915.33L884.78 146.59H841.09L827.75 162.02H811.71V255.25H745.99L692.64 193.55V86.2401L674.86 65.67H589.03L572.79 84.4501V202.49H505.52V96.9601L492.76 82.2001V60.29H480.78V210.53H418.15V120.39L390.24 88.1H322.28V249.87H282.07V155.08H221.76V107.68L210.55 94.7101V155.97H198.57V91.5801H98.83V162.23H72.54V120.38H59.4V162.23H30.02V190.85H16.88V133.62H-0.129997V357.46H1199.87Z" fill="#E65F25"/>
<path d="M1200 1452.35H2.74181e-06L-0.129997 357.46V306.26H26.93V240.4H47.03V269.21H65.59V225.99L83.37 202.32L97.29 220.85V279.51H110.43V123.09H124.35V86.04H167.65V123.09H183.11V258.93H195.48V226L221.77 191.01L248.83 227.03V258.93H263.52V343.32H282.08V258.93L296.77 239.38L310.69 257.9H321.77V227.37H332.08V204.73H347.55L356.83 192.38H396.52L406.57 179H427.96L438.91 193.58H451.8V267.67L463.97 251.46V163.22H476.92V250.69L487.55 264.84H500.5V239.37H519.83V258.92H529.11V268.7H537.61L563.9 183.8H579.37V156.02H628.46V146.76H646.63L656.68 160.14V269.22H663.64V249.67H686.45L713.32 285.43V303.7H734.77V241.78H748.04V169.74L757.58 157.05H786.19L794.31 167.86V229.43H811.45V205.42H832.07V223.26L858.62 187.93H887.75V212.29H903.21V232.87H930.53L943.67 215.38H995.99V160.15H1005.27V129.96H1059.91V153.29L1072.02 169.41V278.84H1084.13V195.83L1108.1 163.93V137.73H1133.61V228.08H1161.45V204.07H1199.85V357.5L1199.98 1452.39L1200 1452.35Z" fill="url(#paint0_linear_191_4)"/>
<defs>
<linearGradient id="paint0_linear_191_4" x1="599.93" y1="1392.68" x2="599.93" y2="244.47" gradientUnits="userSpaceOnUse">
<stop stop-color="#CF2026"/>
<stop offset="0.16" stop-color="#DA3526"/>
<stop offset="0.61" stop-color="#E65F25"/>
<stop offset="0.91" stop-color="#F38C20"/>
<stop offset="1" stop-color="#FAA31A"/>
</linearGradient>
</defs>
</svg>
