<svg width="820" height="529" viewBox="0 0 820 529" fill="none" xmlns="http://www.w3.org/2000/svg">
<path d="M66.1799 -2.82963e-05L0 123.064L753.091 528.053L819.271 404.989L66.1799 -2.82963e-05Z" fill="#0E111F"/>
<path d="M159.234 124.217L154.919 132.24L215.029 164.566L219.343 156.542L159.234 124.217Z" fill="#F38C20"/>
<path d="M249.592 172.803L245.277 180.826L305.387 213.151L309.701 205.128L249.592 172.803Z" fill="#F38C20"/>
<path d="M339.115 220.937L334.8 228.96L394.91 261.285L399.224 253.262L339.115 220.937Z" fill="#F38C20"/>
<path d="M436.401 273.24L432.086 281.264L492.196 313.589L496.511 305.566L436.401 273.24Z" fill="#F38C20"/>
<path d="M525.928 321.398L521.614 329.422L581.724 361.747L586.038 353.724L525.928 321.398Z" fill="#F38C20"/>
<path d="M616.286 369.973L611.971 377.997L672.081 410.322L676.395 402.298L616.286 369.973Z" fill="#F38C20"/>
</svg>
