<svg width="600" height="770" viewBox="0 0 600 770" fill="none" xmlns="http://www.w3.org/2000/svg">
<path d="M307.74 764.91L14.74 591.89C-6.57 579.31 -4.33 547.76 18.55 538.17L311.84 415.26C319.32 412.12 327.74 412.13 335.2 415.28L628.87 539.3C651.68 548.93 653.65 580.5 632.22 593.04L338.25 764.95C328.81 770.47 317.13 770.46 307.73 764.91H307.74Z" fill="#690B14"/>
<path d="M517.2 540.6C520.16 549.74 519.97 560.14 516.32 568.86C498.19 612.13 419.06 644.7 324.21 644.7C229.36 644.7 150.23 612.13 132.1 568.86C128.45 560.14 128.26 549.74 131.22 540.6L137.6 520.89L299.32 21.1902C308.44 -6.98982 339.97 -6.98982 349.09 21.1902L510.81 520.89L517.19 540.6H517.2Z" fill="url(#paint0_linear_158_107)"/>
<path d="M451.4 368.12C451.4 393.38 394.18 413.87 323.6 413.87C253.02 413.87 195.8 393.39 195.8 368.12L198.84 358.16L239.57 224.85C239.57 235.35 277.79 243.87 324.95 243.87C372.11 243.87 410.34 235.36 410.34 224.85L448.72 358.75V358.77L451.4 368.12Z" fill="#FDB913"/>
<defs>
<linearGradient id="paint0_linear_158_107" x1="234.75" y1="147.56" x2="340.44" y2="627.34" gradientUnits="userSpaceOnUse">
<stop stop-color="#E65F25"/>
<stop offset="1" stop-color="#CF2026"/>
</linearGradient>
</defs>
</svg>
