<svg width="648" height="770" viewBox="0 0 648 770" fill="none" xmlns="http://www.w3.org/2000/svg">
<path d="M307.744 764.855L14.7438 591.835C-6.5662 579.255 -4.3262 547.705 18.5538 538.115L311.844 415.205C319.324 412.065 327.744 412.075 335.204 415.225L628.874 539.245C651.684 548.875 653.654 580.445 632.224 592.985L338.254 764.895C328.814 770.415 317.134 770.405 307.734 764.855H307.744Z" fill="#690B14"/>
<path d="M517.204 540.545C520.164 549.685 519.974 560.085 516.324 568.805C498.194 612.075 419.064 644.645 324.214 644.645C229.364 644.645 150.234 612.075 132.104 568.805C128.454 560.085 128.264 549.685 131.224 540.545L137.604 520.835L299.324 21.135C308.444 -7.045 339.974 -7.045 349.094 21.135L510.814 520.835L517.194 540.545H517.204Z" fill="url(#paint0_linear_158_107)"/>
<path d="M451.404 368.065C451.404 393.325 394.184 413.815 323.604 413.815C253.024 413.815 195.804 393.335 195.804 368.065L198.844 358.105L239.574 224.795C239.574 235.295 277.794 243.815 324.954 243.815C372.114 243.815 410.344 235.305 410.344 224.795L448.724 358.695V358.715L451.404 368.065Z" fill="#FDB913"/>
<defs>
<linearGradient id="paint0_linear_158_107" x1="234.754" y1="147.505" x2="340.444" y2="627.285" gradientUnits="userSpaceOnUse">
<stop stop-color="#E65F25"/>
<stop offset="1" stop-color="#CF2026"/>
</linearGradient>
</defs>
</svg>
